PathFileType	4	(X/Y/Z)	13_coords_data.trc
DataRate	CameraRate	NumFrames	NumMarkers	Units	OrigDataRate	OrigDataStartFrame	OrigNumFrames
30.0	30.0	7	21	m	30.0	1	62
Frame#	Time	THUMB_TIP	THUMB_IP	THUMB_MCP	THUMB_CMC	INDEX_TIP	INDEX_DIP	INDEX_PIP	INDEX_MCP	MIDDLE_TIP	MIDDLE_DIP	MIDDLE_PIP	MIDDLE_MCP	RING_TIP	RING_DIP	RING_PIP	RING_MCP	PINKY_TIP	PINKY_DIP	PINKY_PIP	PINKY_MCP	WRIST
X1	Y1	Z1	X2	Y2	Z2	X3	Y3	Z3	X4	Y4	Z4	X5	Y5	Z5	X6	Y6	Z6	X7	Y7	Z7	X8	Y8	Z8	X9	Y9	Z9	X10	Y10	Z10	X11	Y11	Z11	X12	Y12	Z12	X13	Y13	Z13	X14	Y14	Z14	X15	Y15	Z15	X16	Y16	Z16	X17	Y17	Z17	X18	Y18	Z18	X19	Y19	Z19	X20	Y20	Z20	X21	Y21	Z21
0	-2.749317978547796e-18	0.5417127701358888	-0.027286735620734193	-0.1265725237346344	0.5187817905609471	-0.025989155642980544	-0.1272699919668477	0.4897792647732504	-0.020622500028956547	-0.11732652650180708	0.4704643279829912	-0.030600428086242776	-0.07837445122369244	0.5537940039531765	0.07745802773707822	-0.14784198438848872	0.5419101475619514	0.06470881408763918	-0.142919433363492	0.5266108612156797	0.047104663741875996	-0.13353670663302875	0.5041505057484272	0.01674981018935162	-0.1138453026178381	0.5152466510213702	-0.01838306320489863	-0.1240457122159872	0.5324102982447015	-0.01504714250608491	-0.12876597143389618	0.5481424550504445	0.008144795265596805	-0.12076329596665644	0.5176526847663018	0.022150131968092845	-0.09126122192312647	0.5304497794459057	-0.025576948215984052	-0.11053392391003905	0.5471531978563664	-0.018840719942268436	-0.11132071616309966	0.5607633052104768	-0.0007476568181429832	-0.10094834788984586	0.5313298049093568	0.010083321575390825	-0.07543208246829994	0.6003772801118766	0.020287153200751973	-0.05853180052686413	0.585002098674605	0.012971204814766102	-0.06028699139527899	0.5658020482827569	0.0048459426942285	-0.06276695095604953	0.5335060026613875	-0.010601151607431247	-0.06715285631960358	0.462283081001861	-0.023011742144276925	-0.051989820119430985
1	0.03333333333333339	0.5415204047199424	-0.0278794454859696	-0.126508233422438	0.5185974791275395	-0.026478047356632062	-0.12726689379984385	0.4896014753980702	-0.020931612957566792	-0.11740338361444508	0.47035639121990913	-0.030727929883979044	-0.07837071896478545	0.5530670575217299	0.07669833579112434	-0.14956807561542448	0.5413451954189044	0.06390320884882522	-0.1443832250512525	0.5263084381953186	0.04625875032898891	-0.1346580593076409	0.5042122681882174	0.0161581287062299	-0.11418007251838888	0.515167927059497	-0.018924190487476844	-0.1240734886464831	0.5323416842800716	-0.015750461132640114	-0.12886822585627966	0.5482605040482523	0.007378753481854294	-0.12105540571852949	0.5178682774792186	0.021617492769241187	-0.09156441067457838	0.5303122706906238	-0.026077775280332782	-0.11054173622800037	0.5471111630256693	-0.019604916794879135	-0.1114900607203761	0.5607913195264421	-0.001496473782313823	-0.10123737381522571	0.5314507898451742	0.009612441753313883	-0.07573352807296693	0.6007029095123941	0.019377586834472937	-0.05899743999844509	0.5852429267925375	0.012223342567572237	-0.06067246933289061	0.5659885297371261	0.004212156478257845	-0.06310168947008313	0.5335467395746032	-0.010987238233439667	-0.06727207343907848	0.4622830810018609	-0.023011742144276925	-0.05198982011943096
2	0.06666666666666676	0.5413847782115406	-0.028394305183147478	-0.1264877204904299	0.5184692340026958	-0.026888663858952833	-0.1272693072196922	0.48948696166707006	-0.021183200209444086	-0.11745627635212846	0.4702835679321635	-0.030824418630859274	-0.07836450514113424	0.552543516264449	0.07599744032157274	-0.1509768746707259	0.5409453365732979	0.06317798553161574	-0.14557837425486791	0.5261110516700759	0.045523041849802215	-0.13556554308671012	0.5042807392412448	0.01568394612874302	-0.11443021910506515	0.5151147140028224	-0.01936799377150089	-0.1240899588405413	0.5322989749141958	-0.01632852111024058	-0.12893379852319944	0.5483691386868857	0.00673638071339655	-0.12124161481602566	0.5180573042260996	0.021193277976871983	-0.09177402695859796	0.5302239958670169	-0.026526938660055233	-0.11055191647336735	0.5470879847925301	-0.020242176673261614	-0.11160436328414858	0.5608166427398907	-0.00212377290815563	-0.10143443826136866	0.5315598320173756	0.009227156142401771	-0.07594098282598014	0.6009684532292262	0.01863116138222476	-0.05933963230571157	0.5854419456449561	0.011607310074073451	-0.060949935083631945	0.566142411474298	0.0036916266515933938	-0.0633336204132581	0.5335851897112537	-0.011304071996720289	-0.06733859034085121	0.462283081001861	-0.023011742144276925	-0.05198982011943096
3	0.10000000000000014	0.5412990043811037	-0.028836226980704704	-0.12650533061798974	0.518390116498417	-0.027227751143935552	-0.1272771216914152	0.48942744423154827	-0.021382112811408838	-0.11748875473633774	0.47024109863372743	-0.030893445283820098	-0.07835681513196546	0.5522037894602706	0.07535723250192711	-0.15211371768407403	0.5406942933736649	0.06253181720095424	-0.14654234243284736	0.5260079739192097	0.04489175725438477	-0.13628806825262735	0.5043536633415366	0.015316977198811255	-0.11460721697621001	0.5150845482831562	-0.01972234545096957	-0.12409790821619257	0.5322801117992403	-0.01679245350555897	-0.1289690814375565	0.5484700881658964	0.006208320910524312	-0.12133634984869729	0.5182223687562615	0.020867424853997785	-0.09190279649388752	0.5301758048684146	-0.02692303052297923	-0.11056335577175436	0.547082198168256	-0.020763099659965978	-0.11167201142342495	0.5608411608381508	-0.002639862740506649	-0.10155177383680741	0.5316585275599623	0.008919589281255358	-0.07606699763792052	0.6011839044907845	0.01802928309155255	-0.059574068035575495	0.5856060744950486	0.011108345194567548	-0.06113350102548884	0.5662693108931326	0.003271854456298906	-0.06347679044693172	0.5336218400061671	-0.011558655960092368	-0.06736035279020042	0.462283081001861	-0.023011742144276925	-0.051989820119430985
4	0.13333333333333353	0.5412556111072211	-0.029209858374139946	-0.12655549035798175	0.5183527207804074	-0.027501770844543416	-0.1272903724364055	0.4894143656624659	-0.021533375680104994	-0.11750416468115024	0.47022421071116227	-0.030938443537058324	-0.0783484160412499	0.5520248137470248	0.07477564359645933	-0.15302201124602827	0.5405729646720047	0.06196009726657581	-0.14731088832408273	0.5259862665116242	0.04435672083754594	-0.13685339301804367	0.5044283382770587	0.0150465435095683	-0.1147218469980334	0.515074790550187	-0.019995345930766795	-0.12409968537067098	0.5322825852679111	-0.01715337539943057	-0.12897974730180317	0.5485642758253456	0.005784713080401516	-0.12135346383714327	0.5183654046729254	0.0206295237616258	-0.09196285822994046	0.5301599025639041	-0.02726601378511634	-0.11057541492721021	0.5470914786303966	-0.02117867755387426	-0.11170061247092689	0.5608659341351416	-0.003055583778856119	-0.10160121513397144	0.5317478493231872	0.00868159943382707	-0.07612384279858828	0.6013578601930839	0.0175527528461491	-0.059716420668816744	0.5857412403607445	0.010711104778416802	-0.061237287766718274	0.5663738660512675	0.0029399757058667375	-0.06354518384201657	0.5336568317244865	-0.011758255228013603	-0.06734533163842607	0.4622830810018609	-0.023011742144276925	-0.051989820119430985
5	0.1666666666666669	0.5412467866033305	-0.02951964692726508	-0.1266326651180973	0.5183493487788509	-0.027716958089711252	-0.12730916643299142	0.4894389904498022	-0.021642151867277915	-0.1175057022164051	0.4702281313757162	-0.03096275597946374	-0.07833991060408718	0.5519810736376032	0.07424762755849268	-0.1537434043036202	0.5405602499172565	0.06145575444017015	-0.14791822038605107	0.5260314203607076	0.04390795555943566	-0.13728818279636965	0.50450171623983	0.014861693114372299	-0.11478434818002095	0.5150826483418228	-0.020195293619757082	-0.1240972892207009	0.5323035301029697	-0.017422420170596864	-0.12897093305294177	0.5486520073744021	0.005455322242442107	-0.1213063558964318	0.5184878350000344	0.020468934010860362	-0.09196590450868655	0.5301692445786599	-0.02755687838846016	-0.11058770846592167	0.5471128427992069	-0.02150018184250113	-0.1116971706287943	0.5608913829593842	-0.0033821513350144605	-0.10159426111795686	0.5318283073781018	0.008504879177829938	-0.07612355289569916	0.6014978691179742	0.017181961858318662	-0.05978231886118304	0.5858526297936372	0.010399838414043905	-0.06127539892294526	0.5664599910144817	0.0026828806061192645	-0.06355270926014311	0.5336900552076163	-0.011910315472081878	-0.06730149392148368	0.4622830810018609	-0.023011742144276925	-0.05198982011943096
6	0.20000000000000023	0.5412645750164244	-0.029769889390369952	-0.12673132730431216	0.5183721492954794	-0.027879365133522904	-0.12733362510879936	0.48949248699696446	-0.021713710210197412	-0.11749646063471408	0.470248094253816	-0.0309696594614996	-0.07833179861134443	0.5520453599052929	0.07376600374368547	-0.15431810549548247	0.5406336663522382	0.061009947727651004	-0.1483972706584885	0.526127849460532	0.04353418369259254	-0.13761818068320533	0.504570490538521	0.014751287891865195	-0.1148045601982392	0.5151051984298087	-0.02033066713962095	-0.12409244360067365	0.5323398041111485	-0.017610773385765777	-0.12894739416442566	0.5487331376523492	0.0052096399256365555	-0.12120808529969396	0.5185907120327591	0.02037486706644792	-0.09192331136279813	0.5301971295235424	-0.02779731200123431	-0.110599938226453	0.5471428226098775	-0.021739079000477224	-0.11166825406564965	0.5609174525962293	-0.0036310304346933164	-0.10154214302150696	0.5319000871623683	0.00838102986190331	-0.07607797712688755	0.6016107304042065	0.016897034801628963	-0.059787340026923264	0.5859449049660582	0.010158522403282466	-0.06126191250693111	0.5665310932671932	0.0024873016947299376	-0.0635132026174427	0.5337212318786736	-0.012022398083662789	-0.06723678409325909	0.462283081001861	-0.023011742144276925	-0.05198982011943101
